<?xml version="1.0" standalone="no"?>
<svg version="1.0" xmlns="http://www.w3.org/2000/svg"
 width="500.000000pt" height="500.000000pt" viewBox="0 0 500.000000 500.000000"
 preserveAspectRatio="xMidYMid meet">

<g transform="translate(0.000000,500.000000) scale(0.100000,-0.100000)"
fill="#FF0000" stroke="none">
<path d="M3153 4668 c-50 -51 -99 -109 -108 -128 -10 -19 -45 -64 -79 -100
-68 -73 -255 -307 -331 -415 -74 -106 -86 -122 -127 -171 -21 -25 -38 -49 -38
-54 0 -5 -13 -24 -28 -42 -16 -18 -43 -58 -60 -89 -18 -31 -56 -86 -85 -123
-103 -130 -132 -169 -153 -202 -11 -19 -30 -44 -41 -56 -11 -13 -29 -39 -38
-58 -10 -19 -54 -71 -97 -115 -44 -44 -102 -111 -129 -150 -92 -130 -159 -230
-203 -305 -61 -104 -112 -186 -174 -283 -30 -45 -64 -102 -77 -127 -36 -69
-82 -129 -118 -150 -61 -38 -149 -19 -177 37 -23 45 -26 480 -5 603 9 52 22
155 27 229 l11 134 -30 26 c-50 42 -66 83 -59 155 3 33 9 105 12 158 l6 98
-34 31 c-18 17 -55 45 -83 63 -50 32 -60 43 -130 161 -22 37 -57 88 -78 114
-21 25 -60 74 -88 109 -47 59 -53 63 -87 60 -34 -3 -37 -6 -40 -38 -2 -19 2
-53 8 -75 29 -100 53 -182 62 -210 5 -16 12 -138 15 -271 l6 -241 -28 -51 -28
-52 7 -142 7 -143 -31 -48 c-23 -37 -43 -54 -80 -70 -46 -21 -50 -24 -50 -58
0 -20 6 -55 14 -77 20 -57 97 -209 142 -282 33 -54 40 -75 55 -183 10 -67 24
-147 31 -177 15 -64 15 -292 -1 -390 -24 -148 -32 -197 -42 -240 -5 -25 -16
-81 -23 -125 -8 -48 -27 -111 -49 -157 -21 -46 -41 -110 -48 -155 -7 -43 -23
-102 -36 -132 -13 -29 -23 -63 -23 -75 0 -11 -16 -50 -36 -86 -20 -36 -46 -99
-59 -141 -24 -81 -48 -133 -71 -160 -25 -28 -7 -49 40 -49 36 0 47 6 77 38 20
20 51 62 70 92 86 140 150 201 223 212 14 2 23 16 31 53 6 28 17 61 25 75 43
81 199 244 294 308 60 41 76 47 132 50 56 4 67 8 89 34 21 25 25 40 25 99 0
53 5 80 22 112 12 23 30 64 40 91 23 65 96 172 221 325 29 35 68 86 87 112 19
26 70 89 114 138 43 50 91 111 107 136 16 25 55 74 88 109 33 35 69 82 80 104
26 52 75 82 132 82 69 0 106 -35 118 -110 6 -31 10 -35 41 -38 33 -3 139 -43
262 -99 44 -20 66 -25 100 -20 43 6 170 63 303 137 100 56 178 52 211 -11 47
-92 -41 -219 -151 -219 -25 0 -35 -4 -35 -16 0 -8 -14 -47 -30 -86 -17 -39
-33 -96 -36 -127 -13 -110 -85 -201 -173 -217 -20 -4 -49 -14 -66 -22 -16 -9
-55 -19 -85 -22 -54 -5 -55 -6 -58 -38 -2 -19 6 -52 19 -78 25 -53 22 -112 -9
-153 -25 -34 -119 -91 -152 -91 -14 -1 -36 -7 -50 -15 -17 -10 -57 -14 -126
-15 -106 0 -124 -7 -124 -46 0 -22 6 -25 115 -64 128 -45 160 -55 232 -70 23
-5 63 -20 90 -34 106 -56 165 -76 220 -76 50 0 59 4 106 43 29 24 63 50 77 59
14 9 64 49 111 89 47 41 119 99 159 129 40 30 129 106 198 168 69 62 142 122
162 132 20 10 45 31 55 47 10 15 109 119 219 229 111 111 235 239 276 285 41
45 129 142 195 215 165 182 196 223 225 296 26 65 66 103 119 114 47 9 96 39
99 59 3 20 -38 100 -84 164 -21 30 -24 44 -24 132 0 90 -2 99 -22 113 -32 23
-61 20 -89 -10 -13 -14 -36 -32 -51 -40 -36 -18 -112 -18 -148 1 -53 27 -60
56 -54 211 6 149 20 208 60 251 20 22 24 36 24 92 0 44 -7 81 -20 110 -27 59
-25 98 10 209 36 112 42 124 86 179 19 23 34 53 34 67 0 26 -1 26 -74 26 -41
0 -77 -4 -80 -8 -8 -13 -148 -94 -253 -146 -85 -42 -99 -46 -167 -46 -66 0
-77 -3 -90 -22 -9 -12 -16 -34 -16 -49 0 -34 -55 -116 -91 -134 -17 -9 -57
-15 -102 -15 l-75 0 -83 -65 c-46 -35 -106 -80 -134 -100 -27 -19 -76 -56
-107 -82 -31 -27 -79 -66 -105 -88 -26 -22 -93 -88 -148 -147 -112 -121 -136
-138 -195 -138 -81 0 -115 35 -126 133 -5 45 -2 61 19 104 14 27 37 64 51 81
19 21 26 41 26 71 0 63 30 108 130 196 88 77 90 81 85 115 -13 75 -17 132 -11
154 3 13 39 64 79 112 40 49 80 101 90 116 9 15 37 52 62 82 44 54 45 57 45
127 0 62 4 78 34 132 19 34 39 74 45 90 10 26 9 27 -22 27 -28 0 -46 -14 -124
-92z m705 -1337 c20 -11 51 -35 69 -55 17 -20 41 -36 53 -36 85 0 139 -108 91
-185 -16 -27 -39 -38 -192 -91 -96 -33 -204 -70 -241 -82 -114 -38 -229 -25
-258 27 -5 11 -10 42 -10 70 0 45 5 56 49 109 62 74 191 191 239 216 94 50
143 56 200 27z m31 -765 c33 -18 51 -54 51 -104 -1 -46 -14 -69 -63 -112 -21
-18 -44 -45 -52 -60 -8 -16 -37 -42 -64 -58 -27 -17 -64 -49 -82 -71 -35 -44
-113 -107 -166 -134 -85 -44 -173 11 -173 108 0 30 -5 39 -32 53 -145 77 -126
205 37 245 39 10 84 22 100 27 17 5 63 14 104 20 56 8 93 21 155 55 87 48 135
56 185 31z"/>
<path d="M4010 1481 c-52 -20 -113 -48 -135 -62 -42 -27 -125 -112 -125 -127
0 -5 -26 -26 -57 -47 -89 -59 -202 -158 -203 -177 0 -31 57 -34 250 -14 25 3
128 10 230 17 l185 12 36 41 c22 24 59 51 90 65 145 62 164 74 164 106 0 25
-17 46 -102 128 l-101 97 -69 -1 c-53 0 -88 -8 -163 -38z"/>
</g>
</svg>